PathFileType	4	(X/Y/Z)	s01c0301.trc
DataRate	CameraRate	NumFrames	NumMarkers	Units	OrigDataRate	OrigDataStartFrame	OrigNumFrames
200	200	4	48	mm	200	500	2000
Frame#	Time	racr			lacr			c7			jug			rlel			rdr			llel			ldr			s2			lic			ric			lasi			rasi			rpsi			lpsi			rgt			lgt			rth1			rth2			rth3			rth4			rlfc			rsh1			rsh2			rsh3			rsh4			rlmal			rmmal			rcal			rtoe			rmt5			lth1			lth2			lth4			lth3			llfc			lsh1			lsh2			lsh3			lsh4			llmal			lmmal			lcal			ltoe			lmt5			SBIKE			LBIKE			RBIKE			
		X1	Y1	Z1	X2	Y2	Z2	X3	Y3	Z3	X4	Y4	Z4	X5	Y5	Z5	X6	Y6	Z6	X7	Y7	Z7	X8	Y8	Z8	X9	Y9	Z9	X10	Y10	Z10	X11	Y11	Z11	X12	Y12	Z12	X13	Y13	Z13	X14	Y14	Z14	X15	Y15	Z15	X16	Y16	Z16	X17	Y17	Z17	X18	Y18	Z18	X19	Y19	Z19	X20	Y20	Z20	X21	Y21	Z21	X22	Y22	Z22	X23	Y23	Z23	X24	Y24	Z24	X25	Y25	Z25	X26	Y26	Z26	X27	Y27	Z27	X28	Y28	Z28	X29	Y29	Z29	X30	Y30	Z30	X31	Y31	Z31	X32	Y32	Z32	X33	Y33	Z33	X34	Y34	Z34	X35	Y35	Z35	X36	Y36	Z36	X37	Y37	Z37	X38	Y38	Z38	X39	Y39	Z39	X40	Y40	Z40	X41	Y41	Z41	X42	Y42	Z42	X43	Y43	Z43	X44	Y44	Z44	X45	Y45	Z45	X46	Y46	Z46	X47	Y47	Z47	X48	Y48	Z48	
500	2.5000	655.889060	1359.329331	-90.749164	652.883563	1375.117675	-424.702010	611.977473	1454.342069	-250.831865	621.454682	1285.986487	-258.044693	624.826642	1078.031285	1.894601	730.672071	847.695022	-68.768227	593.546221	1100.055273	-540.667719	723.289460	885.540663	-460.879086	88.408294	1214.338173	-246.038880	261.638395	1211.568648	-422.430830	248.739021	1218.175865	-91.723037	262.955728	1155.875276	-393.991746	274.381459	1172.514896	-117.879556	119.461103	1254.550220	-196.357737	122.632013	1251.471494	-302.800946	204.095455	1111.179396	-52.404719	188.057735	1070.541226	-431.996910	306.727760	1032.106809	-37.027151	377.561795	990.135348	-43.123252	451.325876	938.469396	-54.157259	406.485049	1034.549191	-61.077275	502.683114	848.785222	-79.991325	407.703219	780.846039	-52.759056	341.386734	728.685402	-61.241224	266.657641	681.926674	-74.897974	369.633846	695.065114	-102.003094	159.546573	624.487606	-95.909032	198.418381	605.695575	-175.872587	112.457585	637.604532	-153.594531	255.358361	405.327200	-143.925359	172.736839	472.980559	-74.021537	213.107942	947.191310	-435.862965	262.795291	873.437618	-434.570980	307.883522	901.465744	-427.967156	301.979637	799.429900	-415.108612	337.787479	688.089943	-397.164063	292.657749	586.639874	-438.833458	279.231998	501.085263	-434.499731	263.453838	417.225870	-424.885459	333.067754	494.856333	-404.999170	236.378540	293.958072	-410.128484	267.037765	312.124159	-334.558316	188.478567	280.059980	-372.524234	440.879045	163.664690	-380.585741	334.854758	179.336123	-446.587206	-227.724652	890.752917	-253.601213	-21.202622	80.256844	-454.116789	-21.187720	80.259334	-53.989079	
501	2.5050	657.002602	1359.404267	-91.139289	654.645494	1374.675941	-425.449122	613.821767	1454.512879	-251.436975	622.911767	1286.142021	-258.418478	625.408473	1078.289111	1.105954	730.856839	847.889427	-68.773836	595.502028	1099.467108	-540.891138	723.823992	884.712852	-460.645032	89.376609	1215.405716	-247.783266	262.707028	1210.065388	-423.747983	249.391947	1220.151031	-93.010893	264.194413	1155.324927	-394.865383	275.108382	1174.491671	-118.983781	120.590163	1255.898646	-198.438887	124.132625	1251.771017	-304.773489	205.053627	1113.946707	-52.912310	187.512373	1069.721735	-432.414852	308.639019	1036.604784	-38.135574	380.168719	995.572460	-43.760259	454.522253	944.769728	-55.072604	408.497022	1040.245872	-61.942277	506.274841	855.246126	-80.461148	411.068817	786.910429	-53.439256	345.093168	734.309347	-61.871200	270.591388	687.187729	-75.713077	373.429070	700.599582	-102.704294	164.191890	628.914666	-96.323738	203.072126	610.633512	-176.493159	116.599933	641.516513	-153.919009	263.519662	411.516643	-144.567570	179.678773	478.131098	-74.242186	209.431973	946.541006	-435.970339	257.185534	871.520838	-435.079480	303.200872	898.464162	-428.724362	294.462939	796.766304	-415.771452	329.108764	684.803141	-397.733633	284.685961	583.803750	-439.539661	271.527319	498.116646	-435.039236	256.151851	414.214518	-425.212479	325.515127	492.201483	-405.773389	230.676738	290.783965	-410.151645	260.711814	308.857945	-334.475152	183.117465	277.942086	-372.492392	433.811869	157.642467	-380.408351	328.000696	174.946510	-446.466962	-227.796568	890.758825	-253.608995	-21.213567	80.257960	-454.118989	-21.175584	80.267949	-53.996252	
502	2.5100	658.203991	1359.321318	-91.482717	656.280157	1374.247183	-426.282934	615.756347	1454.745582	-252.054700	624.449606	1286.488691	-258.911596	625.792044	1078.474008	0.531901	730.955523	848.232176	-68.679271	597.544600	1098.897450	-541.080720	724.484002	883.944243	-460.437072	90.349859	1216.750892	-249.548745	263.730374	1208.687054	-424.891673	250.044687	1222.311837	-94.379509	265.402383	1155.003758	-395.785184	275.860798	1176.672018	-120.157148	121.665573	1257.511092	-200.483125	125.702876	1252.291225	-306.851575	205.790843	1117.065596	-53.469966	186.803520	1069.150091	-432.789192	310.415382	1041.322132	-39.527659	382.716227	1001.115357	-44.441325	457.646660	951.104904	-56.001691	410.513614	1046.136980	-62.784586	509.832280	861.693724	-81.041043	414.377565	792.981868	-54.090342	348.785113	739.868290	-62.507576	274.578609	692.249675	-76.445320	377.524087	706.218595	-103.099922	168.903865	633.069555	-96.746574	207.730933	615.281036	-177.108166	120.800522	644.939534	-154.250700	271.307133	417.407964	-144.901658	187.155628	483.044347	-74.224899	205.664788	946.198580	-436.244269	251.440542	869.827454	-435.619540	298.156850	895.706088	-429.723374	286.645292	794.366611	-416.448608	320.579809	682.226925	-398.754983	276.506643	581.447444	-440.321290	263.625467	495.721318	-435.651565	248.697180	411.746934	-425.584134	317.876520	490.020834	-406.591020	225.018603	288.248615	-410.298444	254.233815	305.885573	-334.364041	177.719045	276.184070	-372.199904	426.498342	152.101580	-380.333238	320.925056	170.933621	-446.302969	-227.874756	890.768881	-253.571785	-21.223560	80.283503	-454.107763	-21.157670	80.311383	-53.993786	
503	2.5150	659.411559	1359.215091	-91.822260	657.871544	1373.823201	-427.257669	617.741425	1455.056504	-252.675440	625.958782	1286.880272	-259.664996	625.846812	1078.615192	0.176793	730.945435	848.682281	-68.501073	599.697303	1098.421782	-541.231914	725.142569	882.964730	-460.355149	91.396082	1218.261197	-251.369416	264.822819	1207.487318	-425.969739	250.707353	1224.827190	-95.832958	266.466040	1154.659684	-396.764930	276.612274	1179.053366	-121.348577	122.719095	1259.355290	-202.701967	127.264535	1253.020775	-308.956428	206.507512	1120.547065	-54.140865	185.965987	1068.916667	-433.050977	312.194928	1046.220991	-40.803917	385.181632	1006.752191	-44.869332	460.586630	957.487139	-56.846587	412.289821	1051.925821	-64.077289	513.332920	868.167935	-81.666031	417.665896	798.888036	-54.817797	352.493500	745.315780	-63.111851	278.669715	697.087555	-77.087582	381.614342	711.532375	-103.462715	173.687781	636.802718	-97.244325	212.569855	619.464937	-177.716558	124.992186	647.942149	-154.607917	279.688587	423.269903	-145.189746	194.476725	487.328232	-74.521569	201.912230	946.248828	-436.631142	245.290747	868.535833	-436.001156	293.235547	893.362726	-431.022626	278.781808	792.004180	-417.375003	312.142743	680.131143	-399.864171	268.203991	579.539957	-441.171370	255.695666	493.717830	-436.322637	241.186780	409.761253	-425.994607	310.183099	488.329235	-407.602197	219.321187	286.072319	-410.479300	247.625481	303.215230	-334.227393	172.293858	275.147832	-371.958486	418.915890	146.813361	-380.303664	313.615238	167.315716	-446.149170	-228.015841	890.708441	-253.489119	-21.217240	80.216494	-454.218646	-21.163512	80.307546	-53.984084	
